<svg width="70" height="58" viewBox="0 0 70 58" fill="none" xmlns="http://www.w3.org/2000/svg">
<path d="M28.8082 0L23.5041 15.9091H42.2514L47.5555 0H28.8082Z" fill="white"/>
<path d="M22.1009 0L16.7968 15.9091H3.18182V22.2727H66.8182V15.9091H48.9586L54.2627 0H62.3636C63.3665 0 64.3595 0.197521 65.2859 0.581284C66.2124 0.965047 67.0543 1.52754 67.7634 2.23664C68.4725 2.94574 69.035 3.78757 69.4187 4.71405C69.8025 5.64054 70 6.63354 70 7.63636V49.6364C70 51.6617 69.1955 53.604 67.7634 55.0361C66.3313 56.4682 64.3889 57.2727 62.3636 57.2727H7.63636C5.61107 57.2727 3.66874 56.4682 2.23664 55.0361C0.804543 53.604 0 51.6617 0 49.6364V7.63636C0 6.63354 0.19752 5.64054 0.581283 4.71405C0.965047 3.78757 1.52754 2.94574 2.23664 2.23664C3.66874 0.804543 5.61107 0 7.63636 0H22.1009Z" fill="white"/>
</svg>
