<svg width="70" height="70" viewBox="0 0 70 70" fill="none" xmlns="http://www.w3.org/2000/svg">
<path d="M49.6898 0H20.3451C7.59879 0 0 7.595 0 20.335V49.63C0 62.405 7.59879 70 20.3451 70H49.6547C62.4011 70 69.9999 62.405 69.9999 49.665V20.335C70.0349 7.595 62.4361 0 49.6898 0ZM41.7408 49.455H24.5122C23.0765 49.455 21.8859 48.265 21.8859 46.83C21.8859 45.395 23.0765 44.205 24.5122 44.205H41.7408C46.223 44.205 49.8999 40.565 49.8999 36.05C49.8999 31.535 46.2581 27.895 41.7408 27.895H23.987L24.8974 28.805C25.9129 29.855 25.9129 31.5 24.8624 32.55C24.3371 33.075 23.6718 33.32 23.0065 33.32C22.3411 33.32 21.6758 33.075 21.1505 32.55L15.6528 27.02C14.6373 26.005 14.6373 24.325 15.6528 23.31L21.1505 17.815C22.166 16.8 23.8469 16.8 24.8624 17.815C25.8779 18.83 25.8779 20.51 24.8624 21.525L23.7068 22.68H41.7408C49.1295 22.68 55.1525 28.7 55.1525 36.085C55.1525 43.47 49.1295 49.455 41.7408 49.455Z" fill="#8898A9"/>
</svg>
