<svg width="70" height="62" viewBox="0 0 70 62" fill="none" xmlns="http://www.w3.org/2000/svg">
<path d="M35 61.625L5.43655 32.0615C1.95558 28.5806 0 23.8594 0 18.9366V18.104C0 8.31256 7.93756 0.375 17.729 0.375C22.5099 0.375 27.0607 2.30416 30.376 5.67925L25.6193 23.4317L34.0515 31.8639L31.0867 37.7935L38.9129 41.7065L44.6981 30.1362L35.6304 21.0684L42.6321 3.22409C45.4702 1.3858 48.8106 0.375 52.2712 0.375C62.0624 0.375 70 8.31256 70 18.104V18.9366C70 23.8594 68.0444 28.5806 64.5636 32.0615L35 61.625Z" fill="#ED2F2F"/>
</svg>
