<svg width="70" height="70" viewBox="0 0 70 70" fill="none" xmlns="http://www.w3.org/2000/svg">
<path fill-rule="evenodd" clip-rule="evenodd" d="M35 70C18.5008 70 10.2513 70 5.12564 64.8742C-4.17233e-07 59.7488 0 51.499 0 35C0 18.5008 -4.17233e-07 10.2513 5.12564 5.12564C10.2513 -4.17233e-07 18.5008 0 35 0C51.499 0 59.7488 -4.17233e-07 64.8742 5.12564C70 10.2513 70 18.5008 70 35C70 51.499 70 59.7488 64.8742 64.8742C59.7488 70 51.499 70 35 70ZM24.3938 24.3938C25.4189 23.3687 27.081 23.3687 28.1061 24.3938L35 31.2879L41.8936 24.3939C42.9187 23.3688 44.5809 23.3688 45.6061 24.3939C46.6312 25.419 46.6312 27.0811 45.6061 28.1061L38.7121 35L45.6061 41.8939C46.6312 42.9187 46.6312 44.5809 45.6061 45.6061C44.5809 46.6312 42.9187 46.6312 41.8936 45.6061L35 38.7125L28.1061 45.6061C27.081 46.6312 25.419 46.6312 24.3938 45.6061C23.3687 44.5809 23.3687 42.9191 24.3938 41.8939L31.2875 35L24.3938 28.1061C23.3687 27.081 23.3687 25.419 24.3938 24.3938Z" fill="#4C545D"/>
</svg>
