<svg width="70" height="70" viewBox="0 0 70 70" fill="none" xmlns="http://www.w3.org/2000/svg">
<path fill-rule="evenodd" clip-rule="evenodd" d="M0 32.465C1.34609 14.3107 16.5018 0 34.9999 0C32.0841 0 29.4876 1.27828 27.3516 3.23291C25.2264 5.17772 23.4305 7.8926 21.9779 11.1018C20.5168 14.3299 19.3818 18.1055 18.6136 22.2029C17.9978 25.4874 17.623 28.95 17.4981 32.465H0ZM0 37.7295H17.4981C17.623 41.2445 17.9978 44.7072 18.6136 47.9916C19.3818 52.0889 20.5167 55.8646 21.9779 59.0925C23.4305 62.3018 25.2264 65.0166 27.3516 66.9617C29.4876 68.9163 32.0841 70.1945 34.9999 70.1945C16.5018 70.1945 1.34609 55.8839 0 37.7295Z" fill="#3A4551"/>
<path d="M35 4.89746C34.0348 4.89746 32.7881 5.30813 31.3379 6.63502C29.8775 7.97166 28.415 10.0666 27.1233 12.9208C25.8399 15.756 24.7979 19.1787 24.0808 23.0036C23.516 26.0157 23.1657 29.2088 23.0427 32.4651H46.9576C46.8344 29.2088 46.4841 26.0157 45.9194 23.0036C45.2024 19.1787 44.1604 15.7561 42.8768 12.9208C41.5849 10.0666 40.1228 7.97166 38.662 6.63502C37.2122 5.30813 35.9651 4.89746 35 4.89746Z" fill="#3A4551"/>
<path d="M24.0808 47.1913C24.7979 51.0162 25.8399 54.4388 27.1233 57.274C28.415 60.1284 29.8775 62.2231 31.3379 63.5599C32.7878 64.8866 34.0348 65.2976 35 65.2976C35.9651 65.2976 37.2122 64.8866 38.662 63.5599C40.1228 62.2231 41.5849 60.1284 42.8768 57.274C44.1604 54.4388 45.2024 51.0162 45.9194 47.1913C46.4841 44.1792 46.8344 40.9861 46.9576 37.7297H23.0427C23.1657 40.9861 23.516 44.1792 24.0808 47.1913Z" fill="#3A4551"/>
<path d="M35 0C37.9162 0 40.5127 1.27828 42.6484 3.23291C44.7739 5.17772 46.5698 7.8926 48.0221 11.1018C49.4832 14.3299 50.6183 18.1055 51.3865 22.2029C52.0025 25.4874 52.377 28.95 52.5019 32.465H70C68.654 14.3107 53.4983 0 35 0Z" fill="#3A4551"/>
<path d="M51.3865 47.9918C50.6183 52.0891 49.4832 55.8648 48.0221 59.0927C46.5698 62.302 44.7739 65.0168 42.6484 66.9619C40.5127 68.9164 37.9162 70.1947 35 70.1947C53.4983 70.1947 68.654 55.8841 70 37.7297H52.5019C52.377 41.2447 52.0025 44.7074 51.3865 47.9918Z" fill="#3A4551"/>
</svg>
