<svg width="50" height="70" viewBox="0 0 50 70" fill="none" xmlns="http://www.w3.org/2000/svg">
<path d="M49.7721 27.4768L49.6357 27.2619C49.644 26.8238 49.6523 26.3817 49.6357 25.9271L49.6564 25.6089L49.0737 22.3525C49.0737 16.6373 45.338 0.727256 35.8167 2.07444C35.8167 2.07444 26.0393 -3.26472 14.051 3.19021C2.42635 7.91776 0.789886 16.6373 0.789886 22.3525V26.6585C0.765091 26.7412 0.744428 26.8073 0.719634 26.8693C0.343578 27.9479 0.310518 28.0264 1.84367 36.126C1.45108 36.2459 1.10395 36.4856 0.835342 36.8327C-0.47052 38.5642 0.670044 43.1347 1.0213 44.3579C1.3519 46.5068 2.18253 47.7383 2.9429 48.4367C4.62482 60.5076 15.0015 69.9999 24.1218 69.9999C34.7878 69.9999 44.8751 59.5448 46.6562 48.4532C47.4125 47.7631 48.2472 46.5481 48.5572 44.4943C48.9415 43.1306 50.0821 38.5518 48.7721 36.8244C48.6109 36.6137 48.4249 36.4442 48.21 36.3161C48.7803 34.3491 49.5283 31.1299 49.6316 27.5512C49.6812 27.5222 49.7267 27.5016 49.7721 27.4768ZM24.2582 50.8624C21.5597 50.8624 19.7249 48.8789 19.7249 46.2299C19.7249 43.5314 21.6134 41.5974 24.2582 41.5974C27.0063 41.5974 28.7915 43.5314 28.8411 46.2299C28.8411 48.8747 27.0022 50.8624 24.2582 50.8624ZM30.4197 31.9233C28.5312 34.0102 27.7667 35.9979 27.8204 38.2873V39.2047H21.0514L21.0018 37.8823C20.8489 35.2871 21.7085 32.6382 24.002 29.8901C25.6343 27.9561 26.9526 26.3279 26.9526 24.5964C26.9526 22.8153 25.7831 21.6458 23.2416 21.5425C21.5638 21.5425 19.5265 22.1541 18.2 23.0716L16.4644 17.5175C18.2992 16.4472 21.3572 15.4347 24.9649 15.4347C31.6884 15.4347 34.7382 19.1498 34.7382 23.3691C34.7423 27.2412 32.3455 29.7868 30.4197 31.9233Z" fill="#3A4551"/>
</svg>
