<svg width="70" height="70" viewBox="0 0 70 70" fill="none" xmlns="http://www.w3.org/2000/svg">
<path fill-rule="evenodd" clip-rule="evenodd" d="M69.4337 31.942L68.6315 40.4656C67.3096 54.5097 66.6488 61.5317 62.5097 65.7657C58.3706 70 52.1668 70 39.7597 70H30.2403C17.8331 70 11.6295 70 7.49031 65.7657C3.35117 61.5317 2.69027 54.5097 1.36849 40.4656L0.566327 31.942C-0.0637082 25.2479 -0.378708 21.9009 0.766458 20.5172C1.38592 19.7688 2.2283 19.3102 3.12896 19.2311C4.79387 19.0849 6.88477 21.4651 11.0665 26.2257C13.2292 28.6877 14.3105 29.9187 15.5168 30.1095C16.1852 30.2148 16.8662 30.1063 17.4834 29.7958C18.5973 29.2351 19.3399 27.7134 20.8252 24.6698L28.6542 8.62701C31.4608 2.87567 32.8643 0 35 0C37.1357 0 38.5392 2.87567 41.3459 8.62697L49.1747 24.6698C50.6601 27.7134 51.4028 29.2351 52.5165 29.7958C53.1339 30.1063 53.815 30.2148 54.4831 30.1095C55.6896 29.9187 56.7707 28.6877 58.9334 26.2257C63.1152 21.4651 65.2061 19.0849 66.871 19.2311C67.7716 19.3102 68.614 19.7688 69.2335 20.5172C70.3787 21.9009 70.0637 25.2479 69.4337 31.942ZM38.3334 37.4465L37.9894 36.8295C36.6594 34.4435 35.9944 33.2507 35 33.2507C34.0057 33.2507 33.3407 34.4435 32.0107 36.8295L31.6666 37.4465C31.289 38.1245 31.1 38.4636 30.8053 38.6873C30.5106 38.9109 30.1438 38.9938 29.4098 39.1601L28.7417 39.3113C26.1589 39.8955 24.8675 40.1877 24.5603 41.1757C24.2531 42.1638 25.1334 43.1932 26.8941 45.2519L27.3496 45.7845C27.85 46.3697 28.1001 46.6624 28.2128 47.0243C28.3251 47.3862 28.2874 47.7764 28.2118 48.5569L28.1428 49.2677C27.8767 52.0145 27.7436 53.3883 28.5478 53.9987C29.3524 54.6094 30.5613 54.0526 32.9795 52.9392L33.6049 52.6512C34.2923 52.3348 34.6357 52.1766 35 52.1766C35.3644 52.1766 35.7077 52.3348 36.3951 52.6512L37.0206 52.9392C39.4387 54.0526 40.6476 54.6094 41.4523 53.9987C42.2566 53.3883 42.1232 52.0145 41.8572 49.2677L41.7883 48.5569C41.7127 47.7764 41.6749 47.3862 41.7872 47.0243C41.8999 46.6624 42.1502 46.3697 42.6503 45.7845L43.106 45.2519C44.8665 43.1932 45.7471 42.1638 45.4398 41.1757C45.1325 40.1877 43.841 39.8955 41.2584 39.3113L40.5902 39.1601C39.8563 38.9938 39.4895 38.9109 39.1948 38.6873C38.9001 38.4636 38.7111 38.1245 38.3334 37.4465Z" fill="url(#paint0_linear_74_6)"/>
<defs>
<linearGradient id="paint0_linear_74_6" x1="0" y1="0" x2="70" y2="70" gradientUnits="userSpaceOnUse">
<stop stop-color="#FFD11B"/>
<stop offset="1" stop-color="#FFB71B"/>
</linearGradient>
</defs>
</svg>
