<svg width="70" height="70" viewBox="0 0 70 70" fill="none" xmlns="http://www.w3.org/2000/svg">
<g clip-path="url(#clip0_109_2)">
<path fill-rule="evenodd" clip-rule="evenodd" d="M5.12564 5.12564C-4.17233e-07 10.2513 0 18.5008 0 35C0 51.499 -4.17233e-07 59.7488 5.12564 64.8742C10.2513 70 18.5008 70 35 70C51.499 70 59.7488 70 64.8742 64.8742C70 59.7488 70 51.499 70 35C70 18.5008 70 10.2513 64.8742 5.12564C59.7488 -4.17233e-07 51.499 0 35 0C18.5008 0 10.2513 -4.17233e-07 5.12564 5.12564ZM35 38.5C36.933 38.5 38.5 36.933 38.5 35C38.5 33.067 36.933 31.5 35 31.5C33.067 31.5 31.5 33.067 31.5 35C31.5 36.933 33.067 38.5 35 38.5ZM24.5 35C24.5 36.933 22.933 38.5 21 38.5C19.067 38.5 17.5 36.933 17.5 35C17.5 33.067 19.067 31.5 21 31.5C22.933 31.5 24.5 33.067 24.5 35ZM49 38.5C50.933 38.5 52.5 36.933 52.5 35C52.5 33.067 50.933 31.5 49 31.5C47.067 31.5 45.5 33.067 45.5 35C45.5 36.933 47.067 38.5 49 38.5Z" fill="white"/>
</g>
<defs>
<clipPath id="clip0_109_2">
<rect width="70" height="70" fill="white"/>
</clipPath>
</defs>
</svg>
