<svg width="68" height="70" viewBox="0 0 68 70" fill="none" xmlns="http://www.w3.org/2000/svg">
<mask id="path-1-inside-1_99_14" fill="white">
<path d="M12.4636 70C8.10093 70 5.9196 70 4.25329 69.1522C2.78753 68.4067 1.59585 67.2167 0.849045 65.7533C-2.90191e-07 64.0897 0 61.9115 0 57.5556V12.4444C0 8.08846 -2.90191e-07 5.91049 0.849045 4.24674C1.59585 2.78324 2.78753 1.59339 4.25329 0.847739C5.9196 -2.89745e-07 8.10097 0 12.4636 0H49.8545C54.2172 0 56.3987 -2.89745e-07 58.0649 0.847739C59.5306 1.59339 60.7224 2.78324 61.4691 4.24674C62.3181 5.91049 62.3181 8.0885 62.3181 12.4444V15.5556M15.5795 15.5556H38.9488ZM15.5795 46.6667H19.4744ZM15.5795 31.1111H31.1591ZM28.0253 69.5897L33.1462 68.5794C35.9097 68.0342 37.2912 67.7616 38.5796 67.2591C39.7231 66.8134 40.8098 66.2344 41.8174 65.534C42.9524 64.7446 43.9483 63.7506 45.9398 61.7618L65.9926 41.7402C68.6691 39.0674 68.6691 34.734 65.9926 32.0616C63.3156 29.3887 58.9756 29.3887 56.299 32.0616L35.9038 52.4253C34.0374 54.2889 33.1042 55.2207 32.3505 56.2769C31.6814 57.2145 31.1186 58.2233 30.6726 59.2849C30.1702 60.4808 29.8683 61.7633 29.2642 64.3288L28.0253 69.5897Z"/>
</mask>
<path d="M12.4636 75C15.2251 75 17.4636 72.7614 17.4636 70C17.4636 67.2386 15.2251 65 12.4636 65V75ZM4.25329 69.1522L6.52059 64.6958L6.52 64.6955L4.25329 69.1522ZM0.849045 65.7533L5.30264 63.4806L5.3026 63.4805L0.849045 65.7533ZM0.849045 4.24674L5.30264 6.51951L5.30271 6.51938L0.849045 4.24674ZM4.25329 0.847739L6.52038 5.30423L6.52051 5.30416L4.25329 0.847739ZM58.0649 0.847739L55.7976 5.30412L55.7977 5.30416L58.0649 0.847739ZM61.4691 4.24674L57.0152 6.51901L57.0155 6.5196L61.4691 4.24674ZM57.3181 15.5556C57.3181 18.317 59.5567 20.5556 62.3181 20.5556C65.0796 20.5556 67.3181 18.317 67.3181 15.5556H57.3181ZM15.5795 10.5556C12.8181 10.5556 10.5795 12.7941 10.5795 15.5556C10.5795 18.317 12.8181 20.5556 15.5795 20.5556V10.5556ZM38.9488 20.5556C41.7103 20.5556 43.9488 18.317 43.9488 15.5556C43.9488 12.7941 41.7103 10.5556 38.9488 10.5556V20.5556ZM15.5795 41.6667C12.8181 41.6667 10.5795 43.9052 10.5795 46.6667C10.5795 49.4281 12.8181 51.6667 15.5795 51.6667V41.6667ZM19.4744 51.6667C22.2358 51.6667 24.4744 49.4281 24.4744 46.6667C24.4744 43.9052 22.2358 41.6667 19.4744 41.6667V51.6667ZM15.5795 26.1111C12.8181 26.1111 10.5795 28.3497 10.5795 31.1111C10.5795 33.8725 12.8181 36.1111 15.5795 36.1111V26.1111ZM31.1591 36.1111C33.9205 36.1111 36.1591 33.8725 36.1591 31.1111C36.1591 28.3497 33.9205 26.1111 31.1591 26.1111V36.1111ZM28.0253 69.5897L23.1584 68.4436C22.7688 70.0978 23.2462 71.8367 24.4258 73.0602C25.6054 74.2836 27.3257 74.8241 28.9931 74.4952L28.0253 69.5897ZM33.1462 68.5794L34.114 73.4848L34.1141 73.4848L33.1462 68.5794ZM38.5796 67.2591L36.764 62.6004L36.763 62.6008L38.5796 67.2591ZM41.8174 65.534L44.6712 69.6396L44.6725 69.6387L41.8174 65.534ZM45.9398 61.7618L42.407 58.2235L42.4066 58.2239L45.9398 61.7618ZM65.9926 41.7402L69.5254 45.2785L69.5256 45.2782L65.9926 41.7402ZM56.299 32.0616L59.8318 35.5998L59.8321 35.5996L56.299 32.0616ZM35.9038 52.4253L39.4366 55.9636L39.4366 55.9636L35.9038 52.4253ZM32.3505 56.2769L36.4204 59.1814L36.4206 59.1811L32.3505 56.2769ZM30.6726 59.2849L35.2823 61.2217L35.2824 61.2213L30.6726 59.2849ZM29.2642 64.3288L34.1311 65.475L34.1311 65.4748L29.2642 64.3288ZM12.4636 65C10.1999 65 8.80237 64.9961 7.75388 64.9106C6.76354 64.8298 6.53206 64.7017 6.52059 64.6958L1.98599 73.6086C3.64084 74.4505 5.33317 74.7463 6.94075 74.8775C8.49018 75.0039 10.3647 75 12.4636 75V65ZM6.52 64.6955C5.995 64.4285 5.56913 64.0028 5.30264 63.4806L-3.60454 68.0261C-2.37743 70.4307 -0.419944 72.3849 1.98658 73.6089L6.52 64.6955ZM5.3026 63.4805C5.29815 63.4718 5.17026 63.2435 5.08947 62.2563C5.0039 61.2105 5 59.8162 5 57.5556H-5C-5 59.6509 -5.0039 61.5236 -4.87721 63.0718C-4.74574 64.6786 -4.4491 66.3712 -3.60451 68.0262L5.3026 63.4805ZM5 57.5556V12.4444H-5V57.5556H5ZM5 12.4444C5 10.1838 5.0039 8.78953 5.08947 7.74379C5.17025 6.75666 5.29813 6.52835 5.30264 6.51951L-3.60455 1.97398C-4.44909 3.62888 -4.74573 5.32144 -4.87721 6.92822C-5.0039 8.4764 -5 10.3491 -5 12.4444H5ZM5.30271 6.51938C5.56908 5.99738 5.99488 5.57156 6.52038 5.30423L1.98621 -3.60875C-0.419817 -2.38477 -2.37738 -0.4309 -3.60462 1.97411L5.30271 6.51938ZM6.52051 5.30416C6.53199 5.29832 6.7635 5.1702 7.75387 5.08941C8.80238 5.00388 10.1999 5 12.4636 5V-5C10.3647 -5 8.49021 -5.00388 6.94079 -4.87748C5.33323 -4.74634 3.64091 -4.45059 1.98607 -3.60869L6.52051 5.30416ZM12.4636 5H49.8545V-5H12.4636V5ZM49.8545 5C52.1182 5 53.5158 5.00388 54.5644 5.08941C55.5548 5.17021 55.7863 5.29834 55.7976 5.30412L60.3322 -3.60864C58.6774 -4.4506 56.985 -4.74634 55.3774 -4.87748C53.828 -5.00388 51.9535 -5 49.8545 -5V5ZM55.7977 5.30416C56.3234 5.57161 56.7491 5.9975 57.0152 6.51901L65.9229 1.97448C64.6957 -0.431027 62.7378 -2.38482 60.3322 -3.60868L55.7977 5.30416ZM57.0155 6.5196C57.02 6.52841 57.1479 6.75669 57.2287 7.74383C57.3142 8.78956 57.3181 10.1838 57.3181 12.4444H67.3181C67.3181 10.3491 67.322 8.47641 67.1954 6.92821C67.0639 5.32142 66.7672 3.62882 65.9226 1.97389L57.0155 6.5196ZM57.3181 12.4444V15.5556H67.3181V12.4444H57.3181ZM15.5795 20.5556H38.9488V10.5556H15.5795V20.5556ZM15.5795 51.6667H19.4744V41.6667H15.5795V51.6667ZM15.5795 36.1111H31.1591V26.1111H15.5795V36.1111ZM28.9931 74.4952L34.114 73.4848L32.1784 63.674L27.0574 64.6843L28.9931 74.4952ZM34.1141 73.4848C36.7081 72.973 38.5993 72.6182 40.3962 71.9174L36.763 62.6008C35.983 62.9049 35.1112 63.0953 32.1784 63.674L34.1141 73.4848ZM40.3952 71.9178C41.9056 71.3292 43.3407 70.5644 44.6712 69.6396L38.9636 61.4284C38.2789 61.9043 37.5407 62.2977 36.764 62.6004L40.3952 71.9178ZM44.6725 69.6387C46.2551 68.5379 47.6027 67.1674 49.4729 65.2997L42.4066 58.2239C40.2939 60.3337 39.6497 60.9512 38.9623 61.4293L44.6725 69.6387ZM49.4725 65.3001L69.5254 45.2785L62.4598 38.2019L42.407 58.2235L49.4725 65.3001ZM69.5256 45.2782C74.158 40.6523 74.1583 33.1491 69.5254 28.5233L62.4598 35.5998C63.1799 36.3189 63.1803 37.4824 62.4595 38.2022L69.5256 45.2782ZM69.5254 28.5233C64.8966 23.9016 57.3947 23.9012 52.7659 28.5236L59.8321 35.5996C60.5564 34.8762 61.7347 34.8758 62.4598 35.5998L69.5254 28.5233ZM52.7662 28.5233L32.371 48.8871L39.4366 55.9636L59.8318 35.5998L52.7662 28.5233ZM32.371 48.8871C30.619 50.6364 29.3319 51.8991 28.2804 53.3727L36.4206 59.1811C36.8765 58.5422 37.4558 57.9414 39.4366 55.9636L32.371 48.8871ZM28.2807 53.3724C27.3965 54.6112 26.6525 55.9447 26.0628 57.3485L35.2824 61.2213C35.5846 60.5019 35.9662 59.8178 36.4204 59.1814L28.2807 53.3724ZM26.063 57.3482C25.3617 59.0171 24.9643 60.7751 24.3973 63.1828L34.1311 65.4748C34.7724 62.7516 34.9786 61.9445 35.2823 61.2217L26.063 57.3482ZM24.3974 63.1827L23.1584 68.4436L32.8921 70.7359L34.1311 65.475L24.3974 63.1827Z" fill="#E2E7EC" mask="url(#path-1-inside-1_99_14)"/>
</svg>
