<svg width="70" height="18" viewBox="0 0 70 18" fill="none" xmlns="http://www.w3.org/2000/svg">
<path d="M62.0579 17.9999H60.1429C59.988 17.9571 59.8472 17.8858 59.6923 17.8573C55.6649 17.2297 52.4825 13.8351 52.2149 9.85582C51.905 5.40575 54.4116 1.64032 58.4953 0.413701C59.0304 0.256807 59.5937 0.142702 60.1428 7.182e-05H62.0579C62.1846 0.0428609 62.2973 0.114177 62.4381 0.12844C66.1557 0.74175 68.9861 3.45172 69.7888 7.16011C69.8451 7.44537 69.9296 7.73063 70 8.01589V9.95566C69.9578 10.084 69.8873 10.2124 69.8733 10.3408C69.2818 14.0491 66.6767 16.8732 63.0576 17.729C62.7056 17.8146 62.3817 17.9144 62.0578 18L62.0579 17.9999ZM7.92794 0L9.8432 7.182e-05C9.9981 0.0428609 10.1389 0.114177 10.2938 0.12844C14.3494 0.770276 17.5177 4.17914 17.7712 8.20131C18.0528 12.6371 15.5181 16.3883 11.4204 17.6006C10.8993 17.7575 10.3642 17.8716 9.84313 18H7.92801C7.80128 17.9572 7.68862 17.8859 7.56189 17.8574C3.90064 17.1727 1.50675 15.019 0.366125 11.4247C0.211226 10.9541 0.126736 10.4549 0 9.96992V8.03015C0.0422452 7.90178 0.112654 7.77342 0.126736 7.64505C0.73225 3.9224 3.32329 1.11259 6.94229 0.256807C7.28025 0.171157 7.60413 0.0855781 7.92794 0ZM34.0355 7.182e-05H35.9507C36.1056 0.0428609 36.2464 0.114176 36.4013 0.142702C40.4427 0.784538 43.6956 4.32177 43.8646 8.31541C44.0617 12.8083 41.3862 16.6165 37.2603 17.6862C36.8237 17.8003 36.3872 17.9002 35.9507 18H34.0355C33.8806 17.9572 33.7398 17.8859 33.5849 17.8574C29.5435 17.2298 26.2905 13.6783 26.1075 9.68466C25.8963 5.19181 28.5859 1.38358 32.7119 0.313858C33.1625 0.199754 33.599 0.0999129 34.0355 7.182e-05Z" fill="#3A4551"/>
</svg>
