<svg width="70" height="70" viewBox="0 0 70 70" fill="none" xmlns="http://www.w3.org/2000/svg">
<path d="M51.275 13.0164H18.725C8.4 13.0164 0 21.4169 0 31.7424V51.2739C0 61.5995 8.4 70 18.725 70H51.275C61.6 70 70 61.5995 70 51.2739V31.7424C70 21.4169 61.6 13.0164 51.275 13.0164ZM43.75 35.0679C43.75 33.1428 45.325 31.5677 47.25 31.5677C49.175 31.5677 50.75 33.1428 50.75 35.0679C50.75 36.993 49.175 38.6028 47.25 38.6028C45.325 38.6028 43.75 37.063 43.75 35.1379V35.0679ZM28.455 49.2438C27.93 49.7688 27.265 50.0138 26.6 50.0138C25.935 50.0138 25.27 49.7688 24.745 49.2438L21.14 45.6382L17.675 49.1037C17.15 49.6288 16.485 49.8738 15.82 49.8738C15.155 49.8738 14.49 49.6288 13.965 49.1037C12.95 48.0887 12.95 46.4082 13.965 45.3935L17.43 41.9283L14.07 38.5681C13.055 37.5531 13.055 35.873 14.07 34.8579C15.085 33.8428 16.765 33.8428 17.78 34.8579L21.14 38.2181L24.605 34.7529C25.62 33.7378 27.3 33.7378 28.315 34.7529C29.33 35.7679 29.33 37.448 28.315 38.4628L24.85 41.9283L28.455 45.5335C29.47 46.5486 29.47 48.2287 28.455 49.2438ZM40.39 45.4985C38.465 45.4985 36.855 43.9234 36.855 41.9983C36.855 40.0732 38.395 38.4981 40.32 38.4981H40.39C42.315 38.4981 43.89 40.0732 43.89 41.9983C43.89 43.9234 42.35 45.4985 40.39 45.4985ZM47.25 52.3939C45.325 52.3939 43.75 50.8538 43.75 48.9287V48.8584C43.75 46.9333 45.325 45.3582 47.25 45.3582C49.175 45.3582 50.75 46.9333 50.75 48.8584C50.75 50.7835 49.21 52.3939 47.25 52.3939ZM54.18 45.4985C52.255 45.4985 50.645 43.9234 50.645 41.9983C50.645 40.0732 52.185 38.4981 54.11 38.4981H54.18C56.105 38.4981 57.68 40.0732 57.68 41.9983C57.68 43.9234 56.14 45.4985 54.18 45.4985Z" fill="white"/>
<path d="M40.7379 2.48515L40.7029 5.77535C40.6679 8.85553 38.1129 11.4107 34.9979 11.4107C34.4729 11.4107 34.1579 11.7607 34.1579 12.2157C34.1579 12.6708 34.5079 13.0208 34.9629 13.0208H29.3279C29.2929 12.7758 29.2579 12.4957 29.2579 12.2157C29.2579 9.06554 31.8129 6.51039 34.9279 6.51039C35.4529 6.51039 35.8029 6.16037 35.8029 5.70534L35.8379 2.41514C35.8729 1.08507 36.9579 0 38.2879 0H38.3229C39.6879 0 40.7379 1.12007 40.7379 2.48515Z" fill="white"/>
</svg>
