<svg width="70" height="54" viewBox="0 0 70 54" fill="none" xmlns="http://www.w3.org/2000/svg">
<path opacity="0.5" fill-rule="evenodd" clip-rule="evenodd" d="M0 27C0 25.3432 1.34316 24 3 24H40V30H3C1.34316 30 0 28.6568 0 27Z" fill="white"/>
<path d="M40 30V51C40 52.2136 40.7308 53.3072 41.852 53.7716C42.9728 54.236 44.2632 53.9796 45.1212 53.1216L69.1212 29.1216C69.684 28.5588 70 27.7956 70 27C70 26.2044 69.684 25.4412 69.1212 24.8788L45.1212 0.87876C44.2632 0.0207598 42.9728 -0.23588 41.852 0.22844C40.7308 0.6928 40 1.78672 40 3.00008V24V30Z" fill="white"/>
</svg>
