<svg width="70" height="70" viewBox="0 0 70 70" fill="none" xmlns="http://www.w3.org/2000/svg">
<path d="M54.4444 0H7.77778C3.46111 0 0 3.5 0 7.77778V62.2222C0 66.5 3.46111 70 7.77778 70H62.2222C66.5 70 70 66.5 70 62.2222V15.5556L54.4444 0ZM35 62.2222C28.5444 62.2222 23.3333 57.0111 23.3333 50.5556C23.3333 44.1 28.5444 38.8889 35 38.8889C41.4556 38.8889 46.6667 44.1 46.6667 50.5556C46.6667 57.0111 41.4556 62.2222 35 62.2222ZM46.6667 23.3333H7.77778V7.77778H46.6667V23.3333Z" fill="white"/>
</svg>
