<svg width="57" height="60" viewBox="0 0 57 60" fill="none" xmlns="http://www.w3.org/2000/svg">
<path fill-rule="evenodd" clip-rule="evenodd" d="M33.6465 1.27729C32.5665 0.833252 31.1971 0.833252 28.4583 0.833252C25.7196 0.833252 24.3502 0.833252 23.2702 1.27729C21.8299 1.86934 20.6857 3.00494 20.0891 4.43426C19.8168 5.08674 19.7102 5.84554 19.6685 6.95239C19.6072 8.57899 18.7667 10.0846 17.3463 10.8985C15.9259 11.7123 14.1919 11.6819 12.7418 10.9213C11.7551 10.4037 11.0397 10.1159 10.3341 10.0237C8.7886 9.82178 7.22553 10.2374 5.9888 11.1793C5.06124 11.8856 4.37656 13.0625 3.00721 15.4164C1.63786 17.7702 0.953205 18.9472 0.800605 20.0976C0.597109 21.6314 1.01594 23.1827 1.96494 24.4101C2.39809 24.9704 3.00683 25.4412 3.95163 26.0303C5.34057 26.8966 6.23427 28.3721 6.23418 29.9999C6.23409 31.6277 5.34043 33.103 3.95163 33.9689C3.00668 34.5584 2.39783 35.0294 1.96465 35.5897C1.01565 36.817 0.596847 38.3681 0.800314 39.902C0.952914 41.0523 1.6376 42.2295 3.00692 44.5832C4.37626 46.937 5.06095 48.1142 5.98851 48.8203C7.22523 49.7621 8.78831 50.1777 10.3338 49.9759C11.0394 49.8837 11.7547 49.5958 12.7414 49.0784C14.1915 48.3178 15.9257 48.2874 17.3462 49.1012C18.7667 49.9152 19.6072 51.4208 19.6685 53.0477C19.7102 54.1543 19.8168 54.9132 20.0891 55.5657C20.6857 56.9948 21.8299 58.1306 23.2702 58.7227C24.3502 59.1666 25.7196 59.1666 28.4583 59.1666C31.1971 59.1666 32.5665 59.1666 33.6465 58.7227C35.0868 58.1306 36.231 56.9948 36.8274 55.5657C37.0998 54.9132 37.2066 54.1543 37.2483 53.0474C37.3095 51.4208 38.1498 49.9152 39.5702 49.1012C40.9907 48.2871 42.7249 48.3178 44.1751 49.0784C45.1618 49.5958 45.877 49.8834 46.5825 49.9756C48.128 50.1777 49.6911 49.7621 50.9277 48.8203C51.8555 48.1139 52.5401 46.937 53.9095 44.583C55.2788 42.2292 55.9634 41.0523 56.1162 39.902C56.3195 38.3681 55.9007 36.8167 54.9519 35.5894C54.5185 35.0291 53.9098 34.5581 52.9648 33.9689C51.5761 33.103 50.6825 31.6274 50.6825 29.9996C50.6825 28.3718 51.5761 26.8969 52.9648 26.0309C53.91 25.4415 54.5187 24.9707 54.9522 24.4101C55.901 23.1829 56.3198 21.6316 56.1165 20.0977C55.9637 18.9474 55.2791 17.7704 53.9097 15.4166C52.5404 13.0627 51.8558 11.8858 50.928 11.1795C49.6914 10.2376 48.1283 9.82198 46.5828 10.0239C45.8772 10.1161 45.1618 10.4039 44.1754 10.9214C42.7252 11.6821 40.991 11.7125 39.5705 10.8986C38.1501 10.0847 37.3095 8.57893 37.248 6.95224C37.2063 5.84548 37.0998 5.08671 36.8274 4.43426C36.231 3.00494 35.0868 1.86934 33.6465 1.27729ZM28.4583 38.7499C33.3277 38.7499 37.2748 34.8325 37.2748 29.9999C37.2748 25.1673 33.3277 21.2499 28.4583 21.2499C23.589 21.2499 19.6417 25.1673 19.6417 29.9999C19.6417 34.8325 23.589 38.7499 28.4583 38.7499Z" fill="#3A4551"/>
</svg>
