<svg width="76" height="61" viewBox="0 0 76 61" fill="none" xmlns="http://www.w3.org/2000/svg">
<path d="M4.93189 37.334C2.35604 33.041 2.35604 27.6777 4.93189 23.3848C5.71793 22.0746 7.02012 21.1569 8.51825 20.8573L14.6346 19.634C14.999 19.5611 15.3274 19.3657 15.5653 19.0802L23.0402 10.1104C27.3124 4.9838 29.4484 2.42048 31.3546 3.11064C33.2609 3.8008 33.2609 7.13748 33.2609 13.8108V46.9078C33.2609 53.5811 33.2609 56.9178 31.3546 57.6082C29.4484 58.2982 27.3124 55.735 23.0402 50.6083L15.5653 41.6384C15.3274 41.353 14.999 41.1576 14.6346 41.0846L8.51825 39.8614C7.02012 39.5619 5.71793 38.6443 4.93189 37.334Z" stroke="#33363F" stroke-width="5"/>
<path d="M49.6461 17.5869C53.0164 20.957 54.9181 25.5226 54.9369 30.2884C54.9556 35.0546 53.0901 39.6347 49.7466 43.0313" stroke="#33363F" stroke-width="5" stroke-linecap="round"/>
<path d="M64.5353 9.92334C69.9272 15.3155 72.9697 22.6202 72.9997 30.2458C73.0301 37.8714 70.0449 45.1997 64.6953 50.6342" stroke="#33363F" stroke-width="5" stroke-linecap="round"/>
</svg>
