<svg width="76" height="64" viewBox="0 0 76 64" fill="none" xmlns="http://www.w3.org/2000/svg">
<path d="M5.03702 39.2023C2.32099 34.6758 2.32099 29.0206 5.03702 24.494C5.86583 23.1126 7.23888 22.145 8.81853 21.829L15.2677 20.5392C15.6519 20.4623 15.9982 20.2563 16.2491 19.9553L24.1307 10.4973C28.6353 5.09175 30.8877 2.38894 32.8975 3.11666C34.9076 3.84438 34.9076 7.36263 34.9076 14.3991V49.2971C34.9076 56.3336 34.9076 59.8518 32.8975 60.5797C30.8877 61.3073 28.6353 58.6046 24.1307 53.199L16.2491 43.741C15.9982 43.4401 15.6519 43.234 15.2677 43.157L8.81853 41.8672C7.23888 41.5514 5.86583 40.5839 5.03702 39.2023Z" stroke="#33363F" stroke-width="5"/>
<path d="M50.1445 43.2761L73 20.4207" stroke="#33363F" stroke-width="5" stroke-linecap="round"/>
<path d="M73 43.2761L50.1445 20.4207" stroke="#33363F" stroke-width="5" stroke-linecap="round"/>
</svg>
